<svg xmlns="http://www.w3.org/2000/svg"
 xmlns:xlink="http://www.w3.org/1999/xlink"
 width="36px" height="36px"  viewBox="0 0 36 36">
<path fill-rule="evenodd"  fill="#ffffff"
 d="M14.999847,1.9997559 C22.179504,1.9997559 27.999817,7.8200684 27.999817,14.999756 C27.999817,22.179443 22.179504,27.999756 14.999847,27.999756 C7.820221,27.999756 1.9999084,22.179443 1.9999084,14.999756 C1.9999084,7.8200684 7.820221,1.9997559 14.999847,1.9997559 ZM23.269104,23.94873 C23.269104,23.94873 23.9487,23.269043 23.9487,23.269043 C24.324097,22.893555 24.932709,22.893555 25.308136,23.269043 C25.308136,23.269043 28.706482,26.667236 28.706482,26.667236 C29.081818,27.042725 29.081818,27.651367 28.706482,28.026611 C28.706482,28.026611 28.026825,28.706543 28.026825,28.706543 C27.65149,29.081787 27.042786,29.081787 26.667389,28.706543 C26.667389,28.706543 23.269104,25.308105 23.269104,25.308105 C22.893677,24.932617 22.893677,24.323975 23.269104,23.94873 ZM25.294983,27.580566 C25.294983,27.580566 27.580658,25.294922 27.580658,25.294922 C28.001404,24.874023 28.683594,24.874023 29.104431,25.294922 C29.104431,25.294922 33.67572,29.86621 33.67572,29.86621 C34.096375,30.286865 34.096375,30.969238 33.67572,31.389893 C33.67572,31.389893 31.390045,33.675537 31.390045,33.675537 C30.969208,34.09619 30.287018,34.09619 29.866272,33.675537 C29.866272,33.675537 25.294983,29.104248 25.294983,29.104248 C24.874237,28.68335 24.874237,28.00122 25.294983,27.580566 ZM14.999847,7.006836 C19.414154,7.006836 22.992584,10.585693 22.992584,14.999756 C22.992584,19.414062 19.414154,22.992432 14.999847,22.992432 C10.585571,22.992432 7.007141,19.414062 7.007141,14.999756 C7.007141,10.585693 10.585571,7.006836 14.999847,7.006836 Z"/>
</svg>